<?xml version="1.0" ?><svg viewBox="0 0 512 512" xmlns="http://www.w3.org/2000/svg"><defs><style>.cls-1{fill:#a7aec1;}.cls-2{opacity:0.15;}.cls-3{fill:#3f456b;}.cls-4{opacity:0.2;}.cls-5{fill:#fff;}.cls-6{fill:#dae1ea;}.cls-7{fill:#a6dcf7;}.cls-8{opacity:0.5;}.cls-9{opacity:0.3;}</style></defs><title/><g id="Colors"><path class="cls-1" d="M311.75,129.5H466.5a30.09,30.09,0,0,1,30,30v307a30.09,30.09,0,0,1-30,30H45.5a30.09,30.09,0,0,1-30-30v-307a30.09,30.09,0,0,1,30-30h163"/><g class="cls-2"><path class="cls-3" d="M208.5,386.5H45.5a30.09,30.09,0,0,0-30,30v50a30.09,30.09,0,0,0,30,30h421a30.09,30.09,0,0,0,30-30v-50a30.09,30.09,0,0,0-30-30h-258Z"/></g><g class="cls-4"><path class="cls-5" d="M49,130c-36,0-33.5,32.5-33.5,32.5S20,146,48,146H463.46c28,0,32.5,16.5,32.5,16.5s2.5-32.5-33.5-32.5Z"/></g><path class="cls-6" d="M343.75,92.75A124.1,124.1,0,0,0,157.51,256c14.19,0,28.38.06,42.57.57a94.41,94.41,0,1,1,122.68-9.31,95.8,95.8,0,0,1-11.61,9.85c13.62.38,27.24,1.69,40.86,2A124.26,124.26,0,0,0,343.75,92.75Z"/><g class="cls-2"><path class="cls-3" d="M462.46,496c36,0,33.5-32.5,33.5-32.5s-4.5,16.5-32.5,16.5H48c-28,0-32.5-16.5-32.5-16.5S13,496,49,496Z"/></g><g class="cls-2"><path class="cls-3" d="M15,463.48c0,36,32.5,33.5,32.5,33.5S31,492.48,31,464.48V162c0-28,16.5-32.5,16.5-32.5S15,127,15,163Z"/></g><g class="cls-2"><path class="cls-3" d="M497,163c0-36-32.5-33.5-32.5-33.5S481,134,481,162V464.48c0,28-16.5,32.5-16.5,32.5s32.5,2.5,32.5-33.5Z"/></g><g class="cls-4"><path class="cls-5" d="M49,385c-36,0-33.5,32.5-33.5,32.5S20,401,48,401H463.46c28,0,32.5,16.5,32.5,16.5s2.5-32.5-33.5-32.5Z"/></g><g class="cls-4"><path class="cls-5" d="M49,258c-36,0-33.5,32.5-33.5,32.5S20,274,48,274H463.46c28,0,32.5,16.5,32.5,16.5s2.5-32.5-33.5-32.5Z"/></g><g class="cls-2"><path class="cls-3" d="M49,242c-36,0-33.5,32.5-33.5,32.5S20,258,48,258H463.46c28,0,32.5,16.5,32.5,16.5s2.5-32.5-33.5-32.5Z"/></g><path class="cls-6" d="M226,91,213,47h86L286,91S257,81,226,91Z"/><polygon class="cls-7" points="213.47 48.58 208 32 224 15 288 15 303 32 298.22 48.58 213.47 48.58"/><g class="cls-2"><path class="cls-3" d="M161.64,167.5S167,74,256,74s94.36,93.5,94.36,93.5S336,86,256.5,86,161.64,167.5,161.64,167.5Z"/></g><g class="cls-8"><polygon class="cls-5" points="295 62 218 62 215 47 298 47 295 62"/></g><g class="cls-2"><polygon class="cls-3" points="298.71 49 214.29 49 211 34 302 34 298.71 49"/></g><g class="cls-8"><path class="cls-5" d="M291,75s46.19,10.07,78.6,55.53c0,0-18.6-50.53-75.6-68.53Z"/></g><g class="cls-8"><path class="cls-5" d="M220.6,75S174.4,85.07,142,130.53c0,0,18.6-50.53,75.6-68.53Z"/></g><g class="cls-8"><path class="cls-5" d="M161.64,187.33s-5,46.34,23.69,70H200S160.27,228.67,161.64,187.33Z"/></g><g class="cls-2"><path class="cls-3" d="M132,180s-1.33,53.33,27.33,77H174S138,232,132,180Z"/></g><g class="cls-2"><path class="cls-3" d="M379,180s1.33,53.33-27.33,77H337S373,232,379,180Z"/></g><g class="cls-8"><path class="cls-5" d="M350.67,187s5,46.33-23.7,70H312.31S352,228.33,350.67,187Z"/></g><g class="cls-9"><polygon class="cls-5" points="243 15.17 226 47.17 259.33 47.17 254 15 243 15.17"/></g><g class="cls-8"><path class="cls-5" d="M331.65,81.66l-20.83,20.83s27.12,23,33.15,43.76l23.14-23.14S350.31,95.33,331.65,81.66Z"/></g><g class="cls-8"><path class="cls-5" d="M201.45,257.37c-9.15-6.7-17.55-14.82-20-23.21L158.32,257.3l.48.77C173.24,258.64,187.24,257.87,201.45,257.37Z"/></g><path class="cls-7" d="M368.5,63.77s42.75-8.09,48-51.77c0,0,7.5,45.3,48,51.77,0,0-41.5,8.63-48,51.23C416.5,115,407,72.4,368.5,63.77Z"/><g class="cls-8"><path class="cls-5" d="M368,64s29,3,41-8,7-44,7-44-.67,19.67-15.83,33.83C383,62,368,64,368,64Z"/></g><path class="cls-7" d="M48.5,287.77s42.75-8.09,48-51.77c0,0,7.5,45.3,48,51.77,0,0-41.5,8.63-48,51.23C96.5,339,87,296.4,48.5,287.77Z"/><g class="cls-8"><path class="cls-5" d="M48,288s29,3,41-8,7-44,7-44-.67,19.67-15.83,33.83C63,286,48,288,48,288Z"/></g><g class="cls-9"><path class="cls-3" d="M412,447h-1a5,5,0,0,1,0-10h1a5,5,0,0,1,0,10Zm-21,0h-1a5,5,0,0,1,0-10h1a5,5,0,0,1,0,10Zm-21,0h-1a5,5,0,0,1,0-10h1a5,5,0,0,1,0,10Zm-21,0h-1a5,5,0,0,1,0-10h1a5,5,0,0,1,0,10Zm-21,0h-1a5,5,0,0,1,0-10h1a5,5,0,0,1,0,10Zm-21,0h-1a5,5,0,0,1,0-10h1a5,5,0,0,1,0,10Zm-21,0h-1a5,5,0,0,1,0-10h1a5,5,0,0,1,0,10Zm-21,0h-1a5,5,0,0,1,0-10h1a5,5,0,0,1,0,10Zm-21,0h-1a5,5,0,0,1,0-10h1a5,5,0,0,1,0,10Zm-21,0h-1a5,5,0,0,1,0-10h1a5,5,0,0,1,0,10Zm-21,0h-1a5,5,0,0,1,0-10h1a5,5,0,0,1,0,10Zm-21,0h-1a5,5,0,0,1,0-10h1a5,5,0,0,1,0,10Zm-21,0h-1a5,5,0,0,1,0-10h1a5,5,0,0,1,0,10Zm-21,0h-1a5,5,0,0,1,0-10h1a5,5,0,0,1,0,10Zm-21,0h-1a5,5,0,0,1,0-10h1a5,5,0,0,1,0,10Zm-21,0H96a5,5,0,0,1,0-10h1a5,5,0,0,1,0,10Z"/></g></g><g id="Lines"><path class="cls-3" d="M466.5,501.5H45.5a35,35,0,0,1-35-35v-307a35,35,0,0,1,35-35H143a5,5,0,0,1,0,10H45.5a25,25,0,0,0-25,25v307a25,25,0,0,0,25,25h421a25,25,0,0,0,25-25v-307a25,25,0,0,0-25-25H370a5,5,0,0,1,0-10h96.5a35,35,0,0,1,35,35v307A35,35,0,0,1,466.5,501.5Z"/><path class="cls-3" d="M496.5,421a5,5,0,0,1-5-5,25,25,0,0,0-25-25H45.5a25,25,0,0,0-25,25,5,5,0,0,1-10,0,35,35,0,0,1,35-35h421a35,35,0,0,1,35,35A5,5,0,0,1,496.5,421Z"/><path class="cls-3" d="M496.5,292a5,5,0,0,1-5-5,25,25,0,0,0-25-25H105a5,5,0,0,1,0-10H466.5a35,35,0,0,1,35,35A5,5,0,0,1,496.5,292Z"/><path class="cls-3" d="M15.5,292a5,5,0,0,1-5-5,35,35,0,0,1,35-35H88a5,5,0,0,1,0,10H45.5a25,25,0,0,0-25,25A5,5,0,0,1,15.5,292Z"/><path class="cls-3" d="M200,262a5,5,0,0,1-2.92-.94,81.8,81.8,0,0,1-10.37-9.26l-1-1a99.34,99.34,0,1,1,129.35,9.68,5,5,0,1,1-5.94-8,90.64,90.64,0,0,0,10.1-8.71,89.41,89.41,0,1,0-126.44,0l1,1a72.55,72.55,0,0,0,9.13,8.2A5,5,0,0,1,200,262Zm154.15-.55a5,5,0,0,1-3.95-8.06,119.26,119.26,0,0,0-10-157.1,117.41,117.41,0,0,0-47.46-29.06,5,5,0,1,1,3.07-9.52,127.64,127.64,0,0,1,51.47,31.5A129.31,129.31,0,0,1,358.1,259.52,5,5,0,0,1,354.15,261.45Zm-196.57-.35a5,5,0,0,1-4-2C114.24,208,119,134.91,164.71,89.21A127.59,127.59,0,0,1,215.44,58a5,5,0,1,1,3.12,9.5,117.58,117.58,0,0,0-46.77,28.84,119.35,119.35,0,0,0-10.25,156.77,5,5,0,0,1-4,8Z"/><path class="cls-3" d="M335,134H177a5,5,0,0,1,0-10H335a5,5,0,0,1,0,10Z"/><path class="cls-3" d="M286,96a4.7,4.7,0,0,1-1.38-.2,5,5,0,0,1-3.42-6.18l16.24-56.37L285.74,20H226.26l-11.7,13.25L230.8,89.62a5,5,0,0,1-9.6,2.76l-17-59a5,5,0,0,1,1.05-4.69l15-17A5,5,0,0,1,224,10h64a5,5,0,0,1,3.75,1.69l15,17a5,5,0,0,1,1.05,4.69l-17,59A5,5,0,0,1,286,96Z"/><path class="cls-3" d="M297,52.5H213.47a5,5,0,0,1,0-10H297a5,5,0,0,1,0,10Z"/><path class="cls-3" d="M256,91a5,5,0,0,1-5-5V37a5,5,0,0,1,10,0V86A5,5,0,0,1,256,91Z"/><path class="cls-3" d="M416.5,120a5,5,0,0,1-4.88-3.91c-.09-.39-9.36-39.63-44.21-47.44a5,5,0,0,1,.15-9.79c1.6-.31,39.24-8.06,44-47.46a5,5,0,0,1,9.89-.22,74.68,74.68,0,0,0,8.38,22.06c8.41,14.56,20.35,23.17,35.48,25.59a5,5,0,0,1,.23,9.84c-1.55.32-38.2,8.55-44.08,47.08a5,5,0,0,1-4.77,4.25ZM383.6,63.82c17.1,8.46,26.94,23.37,32.27,34.74a64.52,64.52,0,0,1,24.29-29.31,75.28,75.28,0,0,1,8.66-5C437.44,59.08,428,50.17,421,37.94A83.53,83.53,0,0,1,417,30a62.36,62.36,0,0,1-23.72,28.41A73.94,73.94,0,0,1,383.6,63.82Z"/><path class="cls-3" d="M96.5,344a5,5,0,0,1-4.88-3.91c-.09-.39-9.36-39.63-44.21-47.44a5,5,0,0,1,.15-9.79c1.6-.31,39.24-8.06,44-47.46a5,5,0,0,1,9.89-.22,74.68,74.68,0,0,0,8.38,22.06c8.41,14.56,20.35,23.17,35.48,25.59a5,5,0,0,1,.23,9.84c-1.55.32-38.2,8.55-44.08,47.08A5,5,0,0,1,96.67,344ZM63.6,287.82c17.1,8.46,26.94,23.37,32.27,34.74a64.52,64.52,0,0,1,24.29-29.31,75.28,75.28,0,0,1,8.66-5C117.44,283.08,108,274.17,101,261.94A83.53,83.53,0,0,1,97,254a62.36,62.36,0,0,1-23.72,28.41A73.94,73.94,0,0,1,63.6,287.82Z"/></g></svg>