<?xml version="1.0" ?><!DOCTYPE svg  PUBLIC '-//W3C//DTD SVG 1.1//EN'  'http://www.w3.org/Graphics/SVG/1.1/DTD/svg11.dtd'><svg height="512px" style="enable-background:new 0 0 512 512;" version="1.1" viewBox="0 0 512 512" width="512px" xml:space="preserve" xmlns="http://www.w3.org/2000/svg" xmlns:xlink="http://www.w3.org/1999/xlink"><g id="apple__x2C_"><g><path d="M492.871,374.968c0,65.451-53.089,118.482-118.565,118.482H137.168    c-65.497,0-118.566-53.031-118.566-118.482V138.009c0-65.432,53.069-118.483,118.566-118.483h237.137    c65.477,0,118.565,53.051,118.565,118.483V374.968z" style="fill:#A7AAAD;"/><path d="M213.767,404.569c18.468-0.752,25.434-12.131,47.723-12.131c22.328,0,28.579,12.131,48.09,11.765    c19.818-0.386,32.421-18.34,44.54-36.39c14.049-20.885,19.838-41.095,20.186-42.117c-0.444-0.211-38.673-15.118-39.078-59.916    c-0.366-37.522,30.084-55.514,31.454-56.42c-17.115-25.436-43.785-28.946-53.279-29.332c-22.676-2.353-44.23,13.577-55.734,13.577    c-11.5,0-29.254-13.249-48.069-12.901c-24.717,0.386-47.507,14.636-60.244,37.141c-25.675,45.317-6.562,112.48,18.458,149.255    C180.048,385.092,194.622,405.302,213.767,404.569z" style="fill:#FFFFFF;"/><path d="M270.81,130.815c-9.416,11.108-17.656,28.811-15.458,45.839    c16.366,1.292,33.019-8.466,43.209-20.962c10.129-12.535,17.02-29.968,15.147-47.304    C299.063,108.985,281.327,118.3,270.81,130.815z" style="fill:#FFFFFF;"/><path d="M213.767,404.569c18.468-0.752,25.434-12.131,47.723-12.131c22.328,0,28.579,12.131,48.09,11.765    c19.818-0.386,32.421-18.34,44.54-36.39c14.049-20.885,19.838-41.095,20.186-42.117c-0.444-0.211-38.673-15.118-39.078-59.916    c-0.366-37.522,30.084-55.514,31.454-56.42c-17.115-25.436-43.785-28.946-53.279-29.332c-22.676-2.353-44.23,13.577-55.734,13.577    c-11.5,0-29.254-13.249-48.069-12.901c-24.717,0.386-47.507,14.636-60.244,37.141c-25.675,45.317-6.562,112.48,18.458,149.255    C180.048,385.092,194.622,405.302,213.767,404.569z" style="fill:#FFFFFF;"/><path d="M270.81,130.815c-9.416,11.108-17.656,28.811-15.458,45.839    c16.366,1.292,33.019-8.466,43.209-20.962c10.129-12.535,17.02-29.968,15.147-47.304    C299.063,108.985,281.327,118.3,270.81,130.815z" style="fill:#FFFFFF;"/><g><path d="M308.742,179.791c1.545,0,3.101,0.076,4.659,0.237c9.494,0.386,36.164,3.896,53.279,29.332     c-1.37,0.907-31.82,18.898-31.454,56.42c0.405,44.798,38.634,59.705,39.078,59.916c-0.348,1.022-6.137,21.232-20.186,42.117     c-12.119,18.05-24.722,36.004-44.54,36.39c-0.291,0.006-0.577,0.008-0.861,0.008c-18.838,0-25.233-11.772-47.229-11.772     c-22.289,0-29.255,11.379-47.723,12.131c-0.339,0.013-0.674,0.02-1.01,0.02c-18.647,0-32.926-19.815-44.944-37.489     c-25.02-36.774-44.133-103.938-18.458-149.255c12.737-22.505,35.527-36.755,60.244-37.141c0.245-0.004,0.486-0.007,0.73-0.007     c18.542,0,35.988,12.908,47.338,12.908C268.38,193.605,287.808,179.79,308.742,179.791 M308.743,169.914L308.743,169.914     c-14.114,0-26.987,5.168-37.33,9.322c-5.244,2.105-11.188,4.492-13.746,4.492c-3.063,0-8.8-2.318-14.348-4.559     c-9.208-3.72-20.667-8.349-32.99-8.349c-0.305,0-0.607,0.003-0.912,0.008c-13.844,0.216-27.558,4.28-39.631,11.753     c-11.904,7.368-21.941,17.879-29.027,30.399c-12.802,22.596-16.578,51.778-10.917,84.385     c4.664,26.862,15.527,54.304,29.805,75.29c11.321,16.648,28.432,41.811,53.11,41.811c0.461,0,0.922-0.009,1.387-0.026     c10.434-0.425,17.914-3.664,24.514-6.522c6.941-3.006,12.936-5.602,22.832-5.602c9.347,0,15.023,2.498,21.597,5.392     c6.797,2.991,14.5,6.381,25.632,6.381c0.346,0,0.693-0.003,1.047-0.01c25.521-0.496,40.511-22.821,52.555-40.759     c12.648-18.804,19.108-37.253,21.298-44.313l0.069-0.222c1.556-4.723-0.645-9.875-5.146-12.012     c-0.059-0.028-0.231-0.109-0.52-0.229c-3.335-1.394-32.59-14.655-32.917-50.853c-0.279-28.603,20.315-43.85,26.634-47.842     c0.184-0.116,0.315-0.201,0.395-0.253c2.195-1.453,3.72-3.723,4.235-6.304c0.515-2.582-0.022-5.262-1.492-7.447     c-8.479-12.6-19.896-21.914-33.938-27.682c-11.302-4.642-21.544-5.751-26.828-5.991     C312.354,170.001,310.55,169.914,308.743,169.914L308.743,169.914L308.743,169.914z M313.709,108.388     c1.872,17.336-5.019,34.769-15.147,47.304c-9.581,11.75-24.874,21.077-40.271,21.077c-0.979,0-1.96-0.038-2.938-0.115     c-2.199-17.028,6.042-34.731,15.458-45.839C281.327,118.3,299.063,108.985,313.709,108.388 M313.715,98.511     c-0.136,0-0.271,0.002-0.408,0.008c-17.502,0.714-37.619,11.139-50.059,25.941c-10.304,12.155-20.384,32.607-17.692,53.458     c0.599,4.634,4.361,8.214,9.019,8.582c1.224,0.097,2.474,0.146,3.715,0.146c17.132,0,35.496-9.469,47.926-24.712     c12.83-15.878,19.292-36.279,17.313-54.607C322.985,102.294,318.733,98.511,313.715,98.511L313.715,98.511z" style="fill:#808080;"/><path d="M364.039,478.061H147.415c-62.448,0-113.253-50.818-113.253-113.283V148.179     c0-62.454,50.805-113.263,113.253-113.263h216.624c62.459,0,113.272,50.81,113.272,113.263v216.599     C477.312,427.242,426.498,478.061,364.039,478.061z M147.415,44.818c-56.988,0-103.351,46.367-103.351,103.36v216.599     c0,57.004,46.363,103.381,103.351,103.381h216.624c56.998,0,103.37-46.377,103.37-103.381V148.179     c0-56.993-46.372-103.36-103.37-103.36H147.415z" style="fill:#808080;"/></g></g></g><g id="Layer_1"/></svg>